<?xml version="1.0" encoding="UTF-8"?>
<svg id="Capa_1" data-name="Capa 1" xmlns="http://www.w3.org/2000/svg" viewBox="0 0 954.27 729.19">
  <defs>
    <style>
      .cls-1 {
        fill: #85b6c6;
      }

      .cls-1, .cls-2, .cls-3, .cls-4, .cls-5, .cls-6, .cls-7, .cls-8, .cls-9, .cls-10, .cls-11, .cls-12 {
        stroke-width: 0px;
      }

      .cls-2 {
        fill: #3d3a37;
      }

      .cls-3 {
        fill: #e8e7e8;
      }

      .cls-4 {
        fill: #928d8c;
      }

      .cls-5 {
        fill: #f0f0f1;
      }

      .cls-6 {
        fill: #c7c3c3;
      }

      .cls-7 {
        fill: #fff;
      }

      .cls-8 {
        fill: #d8d6d6;
      }

      .cls-9 {
        fill: #191713;
      }

      .cls-10 {
        fill: #605c5b;
      }

      .cls-11 {
        fill: #8ed2f0;
      }

      .cls-12 {
        fill: #bedeec;
      }
    </style>
  </defs>
  <g>
    <path class="cls-7" d="m286.33,0h628.92c21.54,0,39.03,17.49,39.03,39.03v414.59c0,21.54-17.49,39.03-39.03,39.03H286.33c-21.54,0-39.03-17.49-39.03-39.03V39.03c0-21.54,17.49-39.03,39.03-39.03Z"/>
    <circle class="cls-9" cx="506.68" cy="246.91" r="191.45" transform="translate(-26.19 430.6) rotate(-45)"/>
    <g>
      <path class="cls-10" d="m492.89,243.74s-15.51-29.62-30.32-57.12c-14.81-27.5-38.78-88.85,4.94-95.2,43.72-6.35,104.36,7.76,125.52,47.95,21.16,40.19-31.73,93.08-65.58,106.48-33.85,13.4-34.55-2.12-34.55-2.12Z"/>
      <path class="cls-10" d="m512.23,259.97s31.77-10.4,61.35-20.46c29.57-10.06,94.04-23.56,93.07,20.61-.97,44.17-24.91,101.64-68.05,115.86-43.14,14.22-86.55-46.69-94.17-82.29-7.62-35.6,7.8-33.73,7.8-33.73Z"/>
      <path class="cls-10" d="m495.02,269.32s-19.38,27.25-37.18,52.91c-17.81,25.66-61.64,74.83-87.1,38.73-25.46-36.1-40.36-96.55-14.12-133.62,26.25-37.07,97.36-13.88,124.64,10.23,27.28,24.11,13.77,31.76,13.77,31.76Z"/>
      <path class="cls-10" d="m523.04,256.26c0,11.68-9.47,21.16-21.16,21.16s-21.16-9.47-21.16-21.16,9.47-21.15,21.16-21.15,21.16,9.47,21.16,21.15Z"/>
      <path class="cls-2" d="m514.22,256.26c0,6.82-5.52,12.34-12.34,12.34s-12.34-5.53-12.34-12.34,5.53-12.34,12.34-12.34,12.34,5.52,12.34,12.34Z"/>
    </g>
    <path class="cls-3" d="m717.46,472.98h-429.2c-7.25,0-14.3-6.81-14.3-14.08V35.42c0-3.46,1.7-6.63,4.59-8.89,2.59-2.03,6.19-3.2,9.71-3.2h429.2c7.29,0,12.15,4.88,12.15,12.09v423.48c0,3.49-1.16,6.96-3.2,9.57-2.29,2.93-5.46,4.51-8.95,4.51ZM288.26,27c-5.13,0-10.3,3.16-10.3,8.43v423.48c0,5.19,5.13,10.41,10.3,10.41h429.2c5.27,0,8.48-5.37,8.48-10.41V35.42c0-5.19-3.22-8.43-8.48-8.43h-429.2Z"/>
    <rect class="cls-7" x="363.29" y="80" width="5" height="318.32"/>
    <rect class="cls-7" x="455.62" y="50.66" width="4.67" height="395.32"/>
    <rect class="cls-7" x="549.95" y="49.66" width="5" height="395.65"/>
    <rect class="cls-7" x="640.62" y="89.33" width="5" height="317.99"/>
    <rect class="cls-7" x="356.29" y="69" width="294.99" height="3"/>
    <rect class="cls-7" x="356.29" y="83.33" width="294.99" height="3"/>
    <rect class="cls-7" x="356.29" y="98" width="294.99" height="3"/>
    <rect class="cls-7" x="356.29" y="112.66" width="294.99" height="2.67"/>
    <rect class="cls-7" x="326.3" y="126.99" width="354.99" height="3"/>
    <rect class="cls-7" x="326.3" y="141.99" width="354.99" height="2.67"/>
    <rect class="cls-7" x="297.3" y="156.33" width="413.32" height="3"/>
    <rect class="cls-7" x="297.3" y="170.99" width="413.32" height="3"/>
    <rect class="cls-7" x="297.3" y="185.33" width="413.32" height="3"/>
    <rect class="cls-7" x="297.3" y="199.99" width="413.32" height="3"/>
    <rect class="cls-7" x="351.63" y="420.32" width="294.65" height="3"/>
    <rect class="cls-7" x="351.63" y="405.65" width="294.65" height="3"/>
    <rect class="cls-7" x="351.63" y="391.32" width="294.65" height="2.67"/>
    <rect class="cls-7" x="351.63" y="376.65" width="294.65" height="3"/>
    <rect class="cls-7" x="321.3" y="361.99" width="355.32" height="3"/>
    <rect class="cls-7" x="321.3" y="347.65" width="355.32" height="2.67"/>
    <rect class="cls-7" x="292.3" y="332.65" width="413.32" height="3"/>
    <rect class="cls-7" x="292.3" y="318.32" width="413.32" height="3"/>
    <rect class="cls-7" x="292.3" y="303.65" width="413.32" height="3"/>
    <rect class="cls-7" x="292.3" y="289.32" width="413.32" height="2.67"/>
    <rect class="cls-7" x="299.96" y="246.32" width="413.32" height="3"/>
    <rect class="cls-7" x="299.96" y="260.99" width="413.32" height="3"/>
    <rect class="cls-7" x="299.96" y="275.66" width="413.32" height="2.67"/>
    <rect class="cls-7" x="292.96" y="215.66" width="413.32" height="3.33"/>
    <rect class="cls-7" x="292.96" y="230.66" width="413.32" height="2.33"/>
    <rect class="cls-7" x="315.3" y="482.65" width="100.66" height="30.67"/>
    <rect class="cls-7" x="784.94" y="482.98" width="100.66" height="30.33"/>
    <rect class="cls-3" x="755.28" y="110" width="165.66" height="16" rx="7.99" ry="7.99"/>
    <rect class="cls-3" x="755.28" y="191.99" width="165.66" height="16" rx="7.99" ry="7.99"/>
    <rect class="cls-3" x="755.28" y="274.32" width="165.66" height="16" rx="7.99" ry="7.99"/>
    <rect class="cls-3" x="755.28" y="356.32" width="165.66" height="16" rx="7.99" ry="7.99"/>
    <rect class="cls-3" x="755.28" y="438.65" width="165.66" height="16" rx="7.99" ry="7.99"/>
  </g>
  <g>
    <g>
      <path class="cls-7" d="m873.68,295.84c0-26.8-21.61-48.4-48.41-48.4H48.6c-26.8,0-48.6,21.6-48.6,48.4v207.74h873.68v-207.74Z"/>
      <path class="cls-5" d="m0,503.58v21.58c0,20.7,8.27,42.02,28.02,55.11,9.02,4.83,22.57,9.14,42.17,9.14,1.49,0,2.93.05,4.29.05h724.92c1.36,0,2.78-.05,4.27-.05,19.6,0,33.07-4.31,42.09-9.14,19.75-13.09,27.92-34.41,27.92-55.11v-21.58H0Z"/>
      <g>
        <path class="cls-8" d="m853.98,468.06c0-9.53-7.76-17.31-17.3-17.31H37.01c-9.53,0-17.3,7.77-17.3,17.31l1.91,35.52h830.45l1.91-35.52Z"/>
        <path class="cls-6" d="m34.05,569.23c3.21,1.72,8.02,3.37,15,3.37.53,0,1.04.14,1.52.14h772.56c.48,0,.99-.14,1.52-.14,6.97,0,11.79-1.6,15-3.32,7.03-4.66,9.95-12.25,9.95-19.61l2.48-46.1H21.62l2.48,46.07c0,7.36,2.93,14.92,9.95,19.58Z"/>
      </g>
      <g>
        <path class="cls-4" d="m846.32,516.12c0,1.89-1.53,3.42-3.42,3.42H30.02c-1.89,0-3.42-1.53-3.42-3.42h0c0-1.89,1.53-3.42,3.42-3.42h812.88c1.89,0,3.42,1.53,3.42,3.42h0Z"/>
        <path class="cls-4" d="m841.38,530.94c0,1.89-1.53,3.42-3.42,3.42H36.1c-1.89,0-3.42-1.53-3.42-3.42h0c0-1.89,1.53-3.42,3.42-3.42h801.86c1.89,0,3.42,1.53,3.42,3.42h0Z"/>
        <path class="cls-4" d="m837.96,545.38c0,1.89-1.53,3.42-3.42,3.42H39.14c-1.89,0-3.42-1.53-3.42-3.42h0c0-1.89,1.53-3.42,3.42-3.42h795.4c1.89,0,3.42,1.53,3.42,3.42h0Z"/>
        <path class="cls-4" d="m835.68,559.82c0,1.89-1.53,3.42-3.42,3.42H41.42c-1.89,0-3.42-1.53-3.42-3.42h0c0-1.89,1.53-3.42,3.42-3.42h790.84c1.89,0,3.42,1.53,3.42,3.42h0Z"/>
      </g>
      <path class="cls-8" d="m555.6,424.91c0,5.46-4.42,9.88-9.88,9.88h-217.76c-5.46,0-9.88-4.42-9.88-9.88h0c0-5.46,4.42-9.88,9.88-9.88h217.76c5.46,0,9.88,4.42,9.88,9.88h0Z"/>
      <path class="cls-1" d="m834.55,336.77l-5.19-2.88,3.86-1.16c.43-.13.68-.59.55-1.03-.1-.35-.42-.59-.77-.59-.08,0-.15.01-.22.03l-5.43,1.64-3.39-1.88,6.38-1.86c.43-.13.7-.6.57-1.02-.11-.35-.42-.59-.78-.59-.08,0-.16.01-.24.03l-7.95,2.31-12.31-6.86,8.63-.95c.44-.05.77-.45.74-.91-.05-.45-.45-.77-.9-.73l-9.81,1.07,11.93-7.91,7.32,1.97c.09.02.19.03.25.03.36,0,.67-.25.76-.61h0c.06-.23.04-.45-.07-.64-.11-.19-.28-.32-.48-.37l-5.94-1.61,3.19-2.12,5.17,1.35c.07.01.15.03.21.02h.04c.35,0,.67-.26.76-.63.06-.21.03-.43-.08-.61-.11-.19-.29-.32-.5-.38l-3.76-.99,5.04-3.33c.37-.25.48-.77.23-1.14h0c-.14-.24-.38-.37-.66-.37-.16,0-.32.05-.46.14l-4.98,3.32.8-4.01c.08-.45-.2-.87-.65-.96-.05,0-.1-.01-.15-.01-.39,0-.73.28-.82.68l-1.1,5.57-3.26,2.14,1.39-6.53c.09-.44-.19-.87-.64-.97-.05,0-.1-.01-.15-.01-.39,0-.73.27-.8.65l-1.73,8.17-10.77,7.14,4.21-7.87c.11-.2.13-.43.07-.64-.06-.21-.2-.37-.38-.47-.12-.07-.25-.1-.38-.1-.3,0-.59.17-.72.44l-4.36,8.13-.21-14.61,5.67-5.27c.33-.31.34-.83.03-1.16-.15-.17-.36-.26-.58-.26-.21,0-.41.08-.57.22l-4.59,4.28-.06-3.84,3.98-3.77c.17-.15.26-.36.27-.57,0-.22-.07-.43-.22-.59-.16-.17-.37-.27-.59-.27-.21,0-.4.08-.56.23l-2.9,2.76-.08-6.23c-.01-.44-.37-.8-.81-.8h-.02c-.44,0-.81.39-.8.83l.1,6.08-2.87-2.73c-.15-.14-.35-.22-.56-.22-.23,0-.44.09-.6.26-.31.33-.3.86.02,1.17l4.01,3.84.08,3.9-4.71-4.56c-.15-.15-.34-.22-.55-.22-.23,0-.44.09-.6.26-.31.33-.3.86.02,1.17l5.86,5.7.22,14.25-4.78-7.73c-.15-.23-.41-.38-.69-.38-.15,0-.29.04-.42.12h-.01c-.19.12-.32.31-.37.52-.05.22-.01.44.1.63l4.84,7.83-11.53-6.41-1.63-7.54c-.08-.38-.41-.64-.79-.64-.06,0-.12,0-.18.02-.45.1-.72.54-.62.99l1.3,6.11-3.32-1.85-1.2-5.33c-.07-.37-.4-.63-.77-.63-.06,0-.12,0-.18.02-.24.05-.42.18-.54.37-.11.18-.15.4-.09.61l.88,3.89-5.4-2.99c-.12-.07-.25-.1-.38-.1-.3,0-.57.17-.72.43-.11.19-.13.42-.07.63.06.21.2.37.38.47l5.26,2.93-3.81,1.15c-.44.13-.69.63-.57,1.06.1.34.43.61.79.61h.02c.08,0,.11-.04.19-.06l.02-.02,5.35-1.61,3.41,1.86-6.33,1.83c-.43.13-.68.59-.55,1.03.1.36.41.6.77.6h.02s.12,0,.22-.03l7.87-2.3,12.11,6.71-9.79.28c-.44.02-.8.44-.8.9,0,.44.37.82.82.82h.02l8.6-.28-11.94,7.91-7.39-2c-.07-.02-.14-.03-.21-.03-.38,0-.7.24-.8.61-.11.45.13.89.55,1.01l6.02,1.62-3.19,2.11-5.26-1.36c-.06-.01-.12-.02-.18-.02-.38,0-.72.26-.81.61-.06.21-.03.43.08.62.11.19.29.33.5.38l3.82.99-5.17,3.43c-.37.25-.48.78-.24,1.16.15.23.41.36.69.36.15,0,.3-.06.45-.15l5.05-3.36-.79,3.93c-.05.22,0,.44.11.62.12.18.3.3.5.35.07.01.13.02.2.02.39-.01.7-.28.77-.66l1.11-5.51,3.26-2.16-1.36,6.47c-.04.22,0,.44.12.63.12.17.29.29.5.33h.02s.09.02.18.02c.31,0,.69-.26.78-.67l1.68-8.06,12.23-8.1-4.37,8.1c-.1.19-.13.42-.07.63.06.21.21.38.4.48h.02c.1.07.22.1.34.1h.02c.32,0,.58-.16.72-.43l4.33-8.03.21,13.58-5.61,5.21c-.34.31-.36.84-.05,1.17.15.17.35.26.56.26.21,0,.41-.08.57-.23l4.56-4.23.05,3.85-3.93,3.72c-.32.3-.34.83-.04,1.17.16.16.36.25.58.25s.42-.08.58-.23l2.83-2.69.11,6.08c0,.46.34.82.79.82h.02c.45,0,.81-.42.81-.88l-.08-5.99,2.93,2.77c.16.16.34.23.51.22h.03c.22,0,.43-.09.6-.26.15-.16.23-.37.22-.59,0-.22-.1-.42-.26-.57l-4.09-3.89-.03-3.89,4.75,4.59c.15.15.33.2.54.2h.02c.23,0,.42-.07.59-.24.19-.19.23-.39.23-.53,0-.23-.1-.44-.26-.6l-5.9-5.76-.21-13.59,5.22,7.97c.14.23.4.36.67.36.18-.02.31-.06.45-.14.38-.27.49-.77.26-1.16l-5.14-7.84,13.03,7.25,1.62,7.45c.09.38.41.61.81.61h.02c.06,0,.09.02.1.02h.04c.21-.05.4-.17.52-.36.12-.19.15-.4.1-.6l-1.28-6.04,3.31,1.83,1.19,5.28c.09.36.4.62.77.62h.04s.08,0,.14-.02h.04c.21-.06.38-.19.5-.37.12-.19.16-.41.11-.62l-.87-3.8,5.21,2.9c.15.07.28.11.4.11h.04c.37,0,.59-.24.71-.44.11-.19.13-.41.07-.62-.06-.21-.19-.38-.38-.49Z"/>
      <g>
        <g>
          <path class="cls-12" d="m55.2,294.18h87.97c6.35,0,11.5,5.15,11.5,11.5v34c0,6.35-5.15,11.5-11.5,11.5H55.2c-6.35,0-11.5-5.15-11.5-11.5v-34.01c0-6.35,5.15-11.5,11.5-11.5Z"/>
          <path class="cls-4" d="m143.06,352.71H54.94c-1.74,0-3.44-.28-5.03-.95-1.54-.65-2.92-1.55-4.11-2.73-1.19-1.19-2.23-2.55-2.88-4.09-.67-1.59-1.12-3.27-1.12-5.01v-34.08c0-1.74.45-3.44,1.12-5.03.65-1.54,1.64-2.92,2.82-4.11,1.19-1.19,2.59-2.05,4.13-2.7,1.59-.67,3.31-.95,5.06-.95h88.12c1.74,0,3.44.28,5.03.95,1.54.65,2.92,1.55,4.11,2.74,1.19,1.19,2.22,2.55,2.87,4.09.67,1.59,1.12,3.27,1.12,5.01v34.08c0,1.74-.45,3.44-1.12,5.03-.65,1.54-1.64,2.92-2.82,4.11-1.19,1.19-2.59,2.05-4.13,2.7-1.59.67-3.31.95-5.06.95Zm10.09-46.92c0-5.57-4.51-10.08-10.08-10.08H54.54c-5.57,0-10.08,4.51-10.08,10.08v33.8c0,5.57,4.51,10.08,10.08,10.08h88.53c5.57,0,10.08-4.51,10.08-10.08v-33.8Z"/>
        </g>
        <path class="cls-7" d="m57.6,313.65l-3.35-1.67v-7.13l3.35-2.88v11.68Zm0,12.45l-3.35-2.89v-7.38l3.35-1.44v11.71Z"/>
        <path class="cls-7" d="m65.28,312.22l-3.35,1.44v-8.32l1.66-1.44,1.69,1.44v6.87Zm10.45,12.41l-1.72,1.48h-11.39l3.22-2.88h8.17l1.72,1.41Zm1.41-10.59l-3.11,1.3-8.14-.03-3.14-1.26,3.21-1.63h8l3.18,1.61Zm-1.41-10.57l-1.72,1.41h-8.17l-1.72-1.41,1.72-1.48h8.17l1.72,1.48Zm2.18,10.19l-3.35-1.44v-6.87l1.66-1.44,1.69,1.44v8.32Zm0,9.05l-1.69,1.44-1.66-1.44v-6.64l3.35-1.68v8.32Z"/>
        <path class="cls-7" d="m85.99,318.8l-1.76.76v-4.37l.88-.76.89.76v3.62Zm0,5.52l-.89.76-.88-.76v-4.37l1.76.88v3.49Zm6.36-10.9l-1.76,1.52h-4.29l-.9-.74.9-.78h6.06Zm0,12.68h-6.06l-.9-.78.9-.74h4.29l1.76,1.52Z"/>
        <path class="cls-7" d="m82.28,314.06c-.99,0-1.79-.8-1.79-1.79s.8-1.79,1.79-1.79,1.79.8,1.79,1.79-.8,1.79-1.79,1.79Zm0-3.05c-.69,0-1.25.56-1.25,1.25s.56,1.25,1.25,1.25,1.25-.56,1.25-1.25-.56-1.25-1.25-1.25Z"/>
        <rect class="cls-7" x="47.12" y="328.39" width="103.75" height="1.52" rx=".66" ry=".66"/>
        <path class="cls-7" d="m130.67,312.77c.05-.09.07-.2.07-.31,0-.05,0-.1-.02-.14.25-.25.66-.61.89-.49.34.17,1.36,1.23,2.22.29.86-.94.91-1.74.41-2.25,0,0-1.34-1.34-2.39-.74-.96.54-.84,1.9-1.45,2.74-.1-.06-.22-.1-.35-.1-.12,0-.23.03-.32.08-.3-.18-.73-.5-.68-.74.08-.37.87-1.62-.25-2.22-1.12-.61-1.91-.47-2.28.14,0,0-.98,1.62-.15,2.5.75.8,2.05.37,3.01.76-.02.06-.02.12-.02.18,0,.15.05.28.13.4-.25.25-.67.61-.9.5-.34-.17-1.36-1.23-2.22-.29-.86.94-.91,1.74-.41,2.25,0,0,1.34,1.34,2.39.74,1.02-.58.82-2.1,1.6-2.92.03,0,.07,0,.1,0,.06,0,.11,0,.16-.02.25.14.93.54.86.85-.08.37-.87,1.62.25,2.22,1.12.61,1.91.47,2.28-.14,0,0,.98-1.62.15-2.5-.77-.82-2.12-.34-3.09-.79Z"/>
        <g>
          <rect class="cls-7" x="129.21" y="320.03" width="2.28" height="6.46"/>
          <rect class="cls-7" x="132.25" y="317.75" width="1.9" height="8.74"/>
          <rect class="cls-7" x="135.67" y="315.46" width="1.52" height="11.02"/>
          <rect class="cls-7" x="138.71" y="312.8" width="1.9" height="13.68"/>
          <rect class="cls-7" x="141.75" y="310.52" width="1.9" height="15.96"/>
        </g>
        <path class="cls-7" d="m98.58,321.43l-1.37.48v-2.79l.68-.48.69.48v2.31Zm0,3.53l-.69.48-.68-.48v-2.8l1.37.56v2.23Zm4.93-6.96l-1.37.97h-3.33l-.7-.47.7-.5h4.7Zm0,8.1h-4.7l-.7-.5.7-.47h3.33l1.37.97Z"/>
        <path class="cls-7" d="m105.67,321.36l-1.37.56v-2.79l.68-.48.69.48v2.23Zm0,3.61l-.69.48-.68-.48v-2.8l1.37.48v2.31Zm4.26-6.47l-.7.47h-3.33l-.7-.47.7-.5h3.33l.7.5Zm0,7.11l-.7.5h-3.33l-.7-.5.7-.47h3.33l.7.47Zm.89-3.69l-1.37-.56v-2.23l.68-.48.69.48v2.79Zm0,3.04l-.69.48-.68-.48v-2.31l1.37-.48v2.8Z"/>
        <path class="cls-7" d="m113.55,321.36l-1.37.56v-2.79l.68-.48.69.48v2.23Zm0,3.61l-.69.48-.68-.48v-2.8l1.37.48v2.31Zm4.27-6.47l-.7.47h-3.33l-.7-.47.7-.5h3.33l.7.5Zm0,7.11l-.7.5h-3.33l-.7-.5.7-.47h3.33l.7.47Zm.89-3.69l-1.37-.56v-2.23l.68-.48.69.48v2.79Zm0,3.04l-.69.48-.68-.48v-2.31l1.37-.48v2.8Z"/>
        <path class="cls-7" d="m121.43,321.36l-1.37.56v-3.92l1.37.97v2.4Zm0,3.6l-1.37.99v-3.78l1.37.48v2.31Zm4.94,1.14h-6.09l1.38-.97h3.33l1.37.97Z"/>
        <rect class="cls-7" x="94.63" y="297.98" width="1.14" height="31.16"/>
        <g>
          <path class="cls-7" d="m116.28,339.65l-1.33-.65v-2.77l1.33-1.12v4.53Zm0,4.83l-1.33-1.12v-2.87l1.33-.56v4.55Z"/>
          <path class="cls-7" d="m121.44,339.09l-1.33.56v-3.23l.66-.56.67.56v2.67Zm4.14,4.82l-.68.57h-4.52l1.28-1.12h3.24l.68.55Zm.56-4.11l-1.23.51h-3.23s-1.24-.5-1.24-.5l1.27-.63h3.17l1.26.63Zm-.56-4.1l-.68.55h-3.24l-.68-.55.68-.57h3.24l.68.57Zm.87,3.96l-1.33-.56v-2.67l.66-.56.67.56v3.23Zm0,3.51l-.67.56-.66-.56v-2.58l1.33-.65v3.23Z"/>
          <path class="cls-7" d="m128.88,340.31h-1.33v-1.93h1.33v1.93Zm0,4.17h-1.33v-2.02h1.33v2.02Z"/>
          <path class="cls-7" d="m134.79,335.69l-.68.55h-3.24l-1.28-1.12h4.52l.68.57Zm0,8.21l-.68.57h-4.52l1.28-1.12h3.24l.68.55Zm.56-4.11l-1.23.52-3.24-.02-1.25-.51,1.24-.6h3.21l1.27.62Zm.31-.14l-1.33-.65v-2.58l.66-.56.67.56v3.23Zm0,3.51l-.67.56-.66-.56v-2.67l1.33-.56v3.23Z"/>
          <path class="cls-7" d="m138.86,339l-1.33.65v-3.23l.66-.56.67.56v2.58Zm0,4.17l-.67.56-.66-.56v-3.23l1.33.56v2.67Zm4.71-3.37l-1.24.52h-3.25s-1.24-.52-1.24-.52l1.27-.62h3.21l1.24.62Zm.03-4.67l-1.27,1.12h-3.24l-.68-.55.68-.57h4.51Zm-.59,8.79l-.68.57h-3.24l-.68-.57.68-.55h3.24l.68.55Zm.87-.74l-.67.56-.66-.56v-2.67l1.33-.56v3.23Z"/>
        </g>
        <path class="cls-7" d="m61.26,336.15c0,1.84-.99,2.49-2.22,2.49s-2.22-.65-2.22-2.49,2.22-4.16,2.22-4.16c0,0,2.22,2.33,2.22,4.16Z"/>
        <path class="cls-7" d="m55.16,342.3l-.76-.66c.09-.1,2.17-2.44,4.66-1.82.56.14,1.1.35,1.63.55,1.63.62,3.18,1.21,5.51.05l.45.9c-1.13.57-2.13.77-3.02.77-1.25,0-2.31-.4-3.3-.78-.52-.2-1.01-.38-1.51-.51-1.89-.47-3.64,1.49-3.66,1.51Z"/>
        <path class="cls-7" d="m55.16,344.86l-.76-.66c.09-.1,2.17-2.44,4.66-1.82.56.14,1.1.35,1.63.55,1.63.62,3.18,1.21,5.51.05l.45.9c-1.13.57-2.13.77-3.02.77-1.25,0-2.31-.4-3.3-.78-.52-.2-1.01-.38-1.51-.51-1.89-.47-3.64,1.49-3.66,1.51Z"/>
        <path class="cls-7" d="m55.16,347.53l-.76-.66c.09-.1,2.17-2.44,4.66-1.82.56.14,1.1.35,1.63.55,1.63.62,3.18,1.21,5.51.05l.45.9c-1.13.57-2.13.77-3.02.77-1.25,0-2.31-.4-3.3-.78-.52-.2-1.01-.39-1.51-.51-1.89-.47-3.64,1.49-3.66,1.51Z"/>
        <g>
          <path class="cls-7" d="m75.78,337.49l-.68.55h-4.79l1.56-1.12h3.24l.68.57Zm-4.14,7.5l-.67.56-.66-.56v-3.24l1.33.56v2.68Zm4.71-3.38l-1.25.49-3.24.03-1.24-.52,1.24-.63h3.21l1.28.63Zm.3,4.7h-4.78l-.68-.57.68-.55h3.52l1.27,1.12Zm0-4.84l-1.33-.65v-2.59l.66-.56.67.56v3.24Z"/>
          <path class="cls-7" d="m79.29,340.81l-1.33.65v-3.24l.66-.56.67.56v2.59Zm0,4.18l-.67.56-.66-.56v-3.24l1.33.56v2.68Zm4.7-3.38l-1.23.52h-3.25s-1.24-.52-1.24-.52l1.27-.63h3.17l1.27.63Zm-.56-4.11l-.68.55h-3.24l-.68-.55.68-.57h3.24l.68.57Zm0,8.24l-.68.57h-3.24l-.68-.57.68-.55h3.24l.68.55Zm.87-4.27l-1.33-.65v-2.59l.66-.56.67.56v3.24Zm0,3.53l-.67.56-.66-.56v-2.68l1.33-.56v3.24Z"/>
        </g>
      </g>
    </g>
    <g>
      <path class="cls-11" d="m96.42,729.19c-3.34,0-6.11-2.65-6.22-6.02-.58-17.38,11.11-28.41,20.5-37.28,6.39-6.03,11.91-11.25,11.91-16.37s-6.54-9.32-13.47-14.02c-10-6.78-22.46-15.23-22.46-30.66,0-17.69,14.74-28.8,25.5-36.92,3.47-2.62,8.22-6.2,8.92-7.75,2.42-9.11-1.84-13.9-2.02-14.1-2.43-2.43-2.39-6.33.04-8.76,2.43-2.43,6.42-2.39,8.85.05,3.55,3.55,8.62,13.05,5.12,26.16-1.42,5.31-6.71,9.3-13.41,14.36-9.15,6.9-20.55,15.49-20.55,26.97,0,8.22,6.73,13.4,16.99,20.36,8.87,6.02,18.93,12.84,18.93,24.33,0,10.49-8.04,18.09-15.82,25.43-8.74,8.25-16.99,16.05-16.6,27.81.11,3.44-2.58,6.32-6.02,6.43-.07,0-.14,0-.21,0Z"/>
      <path class="cls-11" d="m316.5,729.19c-3.34,0-6.11-2.65-6.22-6.02-.58-17.38,11.11-28.41,20.5-37.28,6.39-6.03,11.91-11.25,11.91-16.37s-6.54-9.32-13.47-14.02c-10-6.78-22.46-15.23-22.46-30.66,0-17.69,14.74-28.8,25.5-36.92,3.47-2.62,8.22-6.2,8.92-7.75,2.42-9.11-1.84-13.9-2.02-14.1-2.43-2.43-2.39-6.33.04-8.76,2.43-2.43,6.42-2.39,8.85.05,3.55,3.55,8.62,13.05,5.12,26.16-1.42,5.31-6.71,9.3-13.41,14.36-9.15,6.9-20.55,15.49-20.55,26.97,0,8.22,6.73,13.4,16.99,20.36,8.87,6.02,18.93,12.84,18.93,24.33,0,10.49-8.04,18.09-15.82,25.43-8.74,8.25-17,16.05-16.6,27.81.11,3.44-2.58,6.32-6.02,6.43-.07,0-.14,0-.21,0Z"/>
      <path class="cls-11" d="m536.59,729.19c-3.34,0-6.11-2.65-6.22-6.02-.58-17.38,11.11-28.41,20.5-37.28,6.39-6.03,11.91-11.25,11.91-16.37s-6.54-9.32-13.47-14.02c-10-6.78-22.45-15.23-22.45-30.66,0-17.69,14.74-28.8,25.5-36.92,3.47-2.62,8.22-6.2,8.92-7.75,2.42-9.11-1.84-13.9-2.02-14.1-2.43-2.43-2.39-6.33.04-8.76,2.43-2.43,6.42-2.39,8.85.05,3.55,3.55,8.62,13.05,5.12,26.16-1.42,5.31-6.71,9.3-13.41,14.36-9.15,6.9-20.55,15.49-20.55,26.97,0,8.22,6.73,13.4,16.99,20.36,8.87,6.02,18.93,12.84,18.93,24.33,0,10.49-8.04,18.09-15.82,25.43-8.74,8.25-16.99,16.05-16.6,27.81.11,3.44-2.58,6.32-6.02,6.43-.07,0-.14,0-.21,0Z"/>
      <path class="cls-11" d="m756.67,729.19c-3.34,0-6.11-2.65-6.22-6.02-.58-17.38,11.11-28.41,20.5-37.28,6.39-6.03,11.91-11.25,11.91-16.37s-6.54-9.32-13.47-14.02c-10-6.78-22.45-15.23-22.45-30.66,0-17.69,14.74-28.8,25.5-36.92,3.47-2.62,8.22-6.2,8.92-7.75,2.42-9.11-1.84-13.9-2.02-14.1-2.43-2.43-2.39-6.33.04-8.76,2.43-2.43,6.42-2.39,8.85.05,3.55,3.55,8.62,13.05,5.12,26.16-1.42,5.31-6.71,9.3-13.41,14.36-9.15,6.9-20.55,15.49-20.55,26.97,0,8.22,6.73,13.4,16.99,20.36,8.87,6.02,18.93,12.84,18.93,24.33,0,10.49-8.04,18.09-15.82,25.43-8.74,8.25-16.99,16.05-16.6,27.81.11,3.44-2.58,6.32-6.02,6.43-.07,0-.14,0-.21,0Z"/>
    </g>
  </g>
</svg>