<?xml version="1.0" encoding="UTF-8"?>
<svg id="Capa_1" data-name="Capa 1" xmlns="http://www.w3.org/2000/svg" viewBox="0 0 1000 1000">
  <defs>
    <style>
      .cls-1 {
        fill: #284696;
        stroke-width: 0px;
      }
    </style>
  </defs>
  <polygon class="cls-1" points="306.66 885.21 437.62 804.45 437.62 654.66 499.55 617 559.38 652.15 559.38 806.13 692.02 885.21 692.02 955.5 630.93 984.79 499.34 914.08 359.38 984.79 306.66 955.08 306.66 885.21"/>
  <polygon class="cls-1" points="69.98 533.92 205.2 607.33 335.13 532.79 398.61 567.77 397.89 637.16 264.34 713.78 261.74 868.18 200.77 903.16 144.97 864.74 140.82 715.42 9.84 629.2 9.37 568.69 69.98 533.92"/>
  <polygon class="cls-1" points="929.35 526.53 794.14 599.94 664.21 525.4 600.73 560.38 601.44 629.76 735 706.39 737.59 860.79 798.57 895.77 854.37 857.35 858.52 708.02 989.5 621.81 989.96 561.3 929.35 526.53"/>
  <polygon class="cls-1" points="306.66 114.94 437.62 195.69 437.62 345.48 499.55 383.14 559.38 347.99 559.38 194.02 692.02 114.94 692.02 44.64 630.93 15.35 499.34 86.07 359.38 15.35 306.66 45.06 306.66 114.94"/>
  <polygon class="cls-1" points="69.98 481.01 205.2 407.59 335.13 482.13 398.61 447.16 397.89 377.77 264.34 301.15 261.74 146.75 200.77 111.77 144.97 150.18 140.82 299.51 9.84 385.72 9.37 446.24 69.98 481.01"/>
  <polygon class="cls-1" points="929.35 481.01 794.14 407.59 664.21 482.13 600.73 447.16 601.44 377.77 735 301.15 737.59 146.75 798.57 111.77 854.37 150.18 858.52 299.51 989.5 385.72 989.96 446.24 929.35 481.01"/>
  <circle class="cls-1" cx="499.34" cy="505.8" r="65.01"/>
</svg>