<?xml version="1.0" encoding="utf-8"?>
<!-- Generator: Adobe Illustrator 28.0.0, SVG Export Plug-In . SVG Version: 6.00 Build 0)  -->
<svg version="1.1" id="Capa_2_00000128456399264557636890000016502182552593324969_"
	 xmlns="http://www.w3.org/2000/svg" xmlns:xlink="http://www.w3.org/1999/xlink" x="0px" y="0px" viewBox="0 0 976.8 192.9"
	 style="enable-background:new 0 0 976.8 192.9;" xml:space="preserve">
<style type="text/css">
	.st0{enable-background:new    ;}
	.st1{fill:#284596;}
	.st2{fill:#23ACE1;}
</style>
<g class="st0">
	<path class="st1" d="M290.3,115.8l-50.2-0.3c2.4,4.7,7.8,9.2,19.7,9.2c9,0,16.2-1.9,21.7-3.7l5.1,16.1c-6.8,3.1-16.5,5-27,5
		c-23,0-39.5-13.8-39.5-34.4s15.3-34.4,38.3-34.4c17.1,0,32.5,11.1,32.5,32C290.8,110.4,290.3,115.8,290.3,115.8z M239.4,100.8
		l33.1-0.3c0-6.6-5.6-10-13.9-10C246.2,90.5,241.3,95.8,239.4,100.8z"/>
	<path class="st1" d="M320.4,141.5h-18.2V49.4l18.2-0.9V141.5z"/>
	<path class="st1" d="M402,115.8l-50.2-0.3c2.4,4.7,7.8,9.2,19.7,9.2c9,0,16.2-1.9,21.7-3.7l5.1,16.1c-6.8,3.1-16.5,5-27,5
		c-23,0-39.5-13.8-39.5-34.4S347,73.2,370,73.2c17.1,0,32.5,11.1,32.5,32C402.5,110.4,402,115.8,402,115.8z M351.1,100.8l33.1-0.3
		c0-6.6-5.6-10-13.9-10C358,90.5,353,95.8,351.1,100.8z"/>
</g>
<g class="st0">
	<path class="st1" d="M476.5,120.2l7.5,15.1c-6.8,3.6-16.7,6.7-27.3,6.7c-23.8,0-39.9-13.8-39.9-34.4s16.1-34.4,39.9-34.4
		c9.9,0,20.3,3.1,26.1,5.9L475.7,95c-5-2.3-12.4-4.6-19-4.6c-19.5,0-21.7,12.3-21.7,17.1s2.1,17.1,21.7,17.1
		C465.6,124.7,471.7,122.2,476.5,120.2z"/>
</g>
<g class="st0">
	<path class="st1" d="M543.7,91.4h-25.2v26.2c0,4.8,1.5,7.1,12.8,7.1c7.8,0,13.9-1.1,13.9-1.1l2.4,16.7c0,0-8.3,1.6-17.3,1.6
		c-14.1,0-30.1-3.7-30.1-24.4V91.4H489l1.5-17.1h10.7l6-14.7l11.4-1.2v15.9h26.8L543.7,91.4z"/>
</g>
<g class="st0">
	<path class="st1" d="M614.7,74.9l-4.3,17.1c0,0-5.4-1.6-13.1-1.6c-5.8,0-14.2,1.7-19.4,3.7v47.2h-18.1V75.1l15.9-0.8l0.7,3.7
		c6.4-2.4,15-4.8,22.5-4.8C608.5,73.2,614.7,74.9,614.7,74.9z"/>
</g>
<g class="st0">
	<path class="st1" d="M617.6,107.6c0-20.6,15.9-34.4,39.7-34.4c23.8,0,39.7,13.8,39.7,34.4S681.2,142,657.4,142
		C633.5,142,617.6,128.2,617.6,107.6z M635.8,107.6c0,4.8,2,17.1,21.5,17.1s21.5-12.3,21.5-17.1s-2-17.1-21.5-17.1
		S635.8,102.8,635.8,107.6z"/>
</g>
<g class="st0">
	<path class="st1" d="M757.1,91.4h-25.4v50.1h-18.2V91.4h-11.2l1.5-17.1h9.8v-1.5c0-20.6,16.2-24.4,29.6-24.4c9,0,17.8,1.9,17.8,1.9
		L758.4,67c0,0-6.8-1.3-14.6-1.3c-10.6,0-12.2,2.3-12.2,7.1v1.5h26.9L757.1,91.4z"/>
</g>
<g class="st0">
	<path class="st1" d="M823.6,74.9l-4.3,17.1c0,0-5.4-1.6-13.1-1.6c-5.8,0-14.2,1.7-19.4,3.7v47.2h-18.1V75.1l15.9-0.8l0.7,3.7
		c6.4-2.4,15-4.8,22.5-4.8C817.4,73.2,823.6,74.9,823.6,74.9z"/>
	<path class="st1" d="M853,141.5h-18.1V75.1l18.1-0.8V141.5z M846.5,48.4H864l-13,18.1h-12.6L846.5,48.4z"/>
	<path class="st1" d="M864.4,107.6c0-20.6,15.9-34.4,39.7-34.4s39.7,13.8,39.7,34.4S928,142,904.1,142S864.4,128.2,864.4,107.6z
		 M882.6,107.6c0,4.8,2,17.1,21.5,17.1s21.5-12.3,21.5-17.1s-2-17.1-21.5-17.1S882.6,102.8,882.6,107.6z"/>
</g>
<g>
	<polygon class="st1" points="70.4,166.2 93.9,151.7 93.9,124.7 105.1,118 115.8,124.3 115.8,152 139.7,166.2 139.7,178.8 
		128.7,184.1 105,171.4 79.9,184.1 70.4,178.7 	"/>
	<polygon class="st1" points="27.9,103 52.2,116.2 75.5,102.8 86.9,109.1 86.8,121.6 62.8,135.4 62.3,163.1 51.4,169.4 41.3,162.5 
		40.6,135.6 17,120.2 17,109.3 	"/>
	<polygon class="st1" points="182.3,101.7 158,114.9 134.7,101.5 123.2,107.8 123.4,120.3 147.4,134 147.9,161.8 158.8,168.1 
		168.8,161.2 169.6,134.3 193.1,118.8 193.2,108 	"/>
	<polygon class="st1" points="70.4,27.7 93.9,42.2 93.9,69.2 105.1,75.9 115.8,69.6 115.8,42 139.7,27.7 139.7,15.1 128.7,9.8 
		105,22.5 79.9,9.8 70.4,15.2 	"/>
	<polygon class="st1" points="27.9,93.5 52.2,80.3 75.5,93.7 86.9,87.4 86.8,75 62.8,61.2 62.3,33.5 51.4,27.2 41.3,34.1 40.6,60.9 
		17,76.4 17,87.3 	"/>
	<polygon class="st1" points="182.3,93.5 158,80.3 134.7,93.7 123.2,87.4 123.4,75 147.4,61.2 147.9,33.5 158.8,27.2 168.8,34.1 
		169.6,60.9 193.1,76.4 193.2,87.3 	"/>
	<circle class="st2" cx="105" cy="98" r="11.7"/>
</g>
</svg>
